<svg xmlns="http://www.w3.org/2000/svg" viewBox="0 0 512 512">
  <defs>
    <linearGradient id="bg" x1="0" y1="0" x2="1" y2="1">
      <stop offset="0%" stop-color="#2d1b69"/>
      <stop offset="100%" stop-color="#1a0f3c"/>
    </linearGradient>
  </defs>

  <!-- Background -->
  <rect width="512" height="512" rx="80" ry="80" fill="url(#bg)"/>

  <!-- Handlebar mustache — drawn as thick stroked paths for clean tapering -->
  <g transform="translate(256, 275)" fill="none" stroke="#f0dfc4" stroke-linecap="round" stroke-linejoin="round">
    <!-- Left half -->
    <path d="M -4,-2 C -25,-12 -55,-42 -90,-48 C -125,-54 -148,-32 -155,-10 C -162,14 -148,38 -128,40 C -112,42 -104,28 -108,14" stroke-width="28"/>
    <!-- Right half -->
    <path d="M 4,-2 C 25,-12 55,-42 90,-48 C 125,-54 148,-32 155,-10 C 162,14 148,38 128,40 C 112,42 104,28 108,14" stroke-width="28"/>
  </g>

  <!-- Italic "Le" accent -->
  <text x="256" y="190" text-anchor="middle" font-family="Georgia, 'Times New Roman', serif" font-size="50" font-style="italic" fill="#8b6fe0" opacity="0.5" letter-spacing="3">Le</text>
</svg>
